<?xml version="1.0" standalone="no"?>
<!DOCTYPE svg PUBLIC "-//W3C//DTD SVG 20010904//EN"
 "http://www.w3.org/TR/2001/REC-SVG-20010904/DTD/svg10.dtd">
<svg version="1.0" xmlns="http://www.w3.org/2000/svg"
 width="195.000000pt" height="195.000000pt" viewBox="0 0 195.000000 195.000000"
 preserveAspectRatio="xMidYMid meet">
<metadata>
Created by potrace 1.14, written by Peter Selinger 2001-2017
</metadata>
<g transform="translate(0.000000,195.000000) scale(0.100000,-0.100000)"
fill="#000000" stroke="none">
<path d="M0 1791 c0 -158 0 -159 25 -175 13 -9 30 -34 36 -56 12 -40 12 -41
-24 -75 l-37 -35 0 -209 0 -209 32 2 c18 0 35 3 38 6 24 24 47 27 69 9 32 -26
43 -24 35 6 -4 15 -2 25 5 25 6 0 11 -9 11 -21 0 -14 5 -19 15 -16 8 4 17 2
20 -3 7 -12 35 -6 46 11 8 12 12 10 25 -8 13 -18 20 -20 47 -12 43 12 77 11
107 -4 21 -10 25 -21 28 -60 1 -31 -1 -46 -8 -42 -5 3 -10 2 -10 -4 0 -5 5
-13 12 -17 8 -5 6 -10 -8 -14 -26 -9 -414 -10 -414 -1 0 4 5 12 12 19 9 9 9
12 0 12 -6 0 -15 -7 -20 -16 -7 -13 -11 -14 -17 -4 -4 7 -2 16 5 20 8 5 5 9
-9 13 -21 5 -21 4 -21 -264 l0 -268 83 -4 82 -3 -82 -2 -83 -2 0 -195 0 -195
975 0 975 0 0 975 0 975 -975 0 -975 0 0 -159z m205 -161 c-9 -14 15 -181 31
-212 11 -21 11 -28 1 -32 -9 -3 -8 -7 3 -15 46 -30 55 -41 42 -49 -10 -7 -10
-11 3 -22 20 -16 19 -30 -1 -30 -10 0 -14 -6 -11 -14 7 -17 -29 -9 -81 18 -18
9 -36 15 -40 12 -4 -2 -9 4 -9 15 -2 21 18 25 49 8 22 -12 22 -14 2 36 -4 10
0 15 11 15 12 0 15 5 10 18 -8 19 -18 59 -34 142 -12 57 -1 120 21 120 5 0 6
-4 3 -10z m-155 -310 c13 -8 13 -10 -2 -10 -9 0 -20 5 -23 10 -8 13 5 13 25 0z
m313 -86 c16 -4 33 -1 42 6 9 7 15 8 15 2 0 -21 -57 -33 -112 -23 -5 0 -8 8
-8 17 0 10 6 14 18 10 9 -3 29 -8 45 -12z m1379 -253 c2 -17 1 -28 -4 -25 -8
5 -12 54 -4 54 2 0 6 -13 8 -29z m85 -23 c-3 -7 -5 -2 -5 12 0 14 2 19 5 13 2
-7 2 -19 0 -25z m-1294 -64 c20 -7 23 -24 5 -24 -15 1 -48 24 -48 34 0 4 6 5
13 2 6 -3 20 -9 30 -12z m1015 -136 c-24 -36 -26 -74 -12 -151 17 -85 16 -80
5 -73 -5 3 -16 41 -26 83 -9 43 -19 86 -21 96 -4 11 6 28 27 48 35 33 50 32
27 -3z m-1100 -8 c23 0 25 -2 11 -15 -12 -12 -22 -13 -53 -4 -29 8 -36 13 -25
20 8 5 20 7 27 4 8 -3 25 -5 40 -5z m134 -5 c14 -19 8 -35 -12 -35 -31 0 -92
28 -85 39 7 13 88 9 97 -4z m863 -16 c-9 -14 -45 -11 -45 4 0 8 3 17 6 20 10
9 46 -12 39 -24z m-1110 11 c-3 -5 -11 -10 -16 -10 -6 0 -7 5 -4 10 3 6 11 10
16 10 6 0 7 -4 4 -10z m880 -17 c-5 -10 -13 -38 -20 -62 -12 -44 -45 -68 -45
-33 0 55 26 96 69 111 2 0 0 -7 -4 -16z m-538 -44 c-8 -21 -13 -26 -15 -15 -2
10 2 23 8 31 18 22 20 18 7 -16z m193 -45 c0 -25 -8 -42 -26 -59 -15 -14 -31
-25 -35 -25 -15 0 -10 19 9 30 14 9 13 10 -8 4 l-25 -6 23 24 c12 13 22 30 22
37 0 16 23 40 33 34 4 -2 7 -20 7 -39z m-291 10 c2 -2 0 -19 -3 -40 -8 -42 -8
-42 -155 2 -17 5 -22 4 -17 -4 10 -17 -16 -15 -64 4 -22 9 -50 14 -62 11 -16
-5 -18 -3 -9 6 21 22 289 40 310 21z m811 -25 c0 -9 -6 -21 -13 -27 -10 -8
-12 -2 -9 30 3 28 7 36 13 27 5 -8 9 -21 9 -30z m-32 7 c2 -10 -4 -26 -14 -37
-18 -20 -44 -26 -44 -9 0 6 5 10 11 10 6 0 9 6 6 13 -6 17 12 49 26 44 7 -2
14 -11 15 -21z m82 -64 c0 -15 -2 -15 -10 -2 -13 20 -13 33 0 25 6 -3 10 -14
10 -23z m-1035 8 c-3 -5 -12 -10 -18 -10 -7 0 -6 4 3 10 19 12 23 12 15 0z
m140 -76 c-19 -30 -81 -62 -94 -48 -5 5 -11 18 -13 29 -2 15 4 20 34 25 20 4
47 14 60 22 29 19 35 6 13 -28z"/>
<path d="M2 1530 c0 -14 2 -19 5 -12 2 6 2 18 0 25 -3 6 -5 1 -5 -13z"/>
<path d="M85 1029 c-4 -6 -5 -12 -2 -15 2 -3 7 2 10 11 7 17 1 20 -8 4z"/>
<path d="M20 985 c0 -9 5 -15 11 -13 6 2 11 8 11 13 0 5 -5 11 -11 13 -6 2
-11 -4 -11 -13z"/>
<path d="M326 935 c-3 -8 3 -19 14 -25 17 -9 20 -7 20 9 0 23 -26 35 -34 16z"/>
<path d="M430 923 c0 -4 5 -15 10 -23 8 -13 10 -13 10 2 0 9 -4 20 -10 23 -5
3 -10 3 -10 -2z"/>
</g>
</svg>
